<mxfile host="app.diagrams.net" modified="2025-08-22T20:51:00.000Z" agent="AWS Code Challenge" etag="aws-challenge-arch" version="24.7.17">
  <diagram name="AWS Code Challenge - Carthub Architecture" id="aws-challenge-carthub">
    <mxGraphModel dx="1422" dy="794" grid="1" gridSize="10" guides="1" tooltips="1" connect="1" arrows="1" fold="1" page="1" pageScale="1" pageWidth="1400" pageHeight="900" math="0" shadow="0">
      <root>
        <mxCell id="0" />
        <mxCell id="1" parent="0" />
        
        <!-- Title -->
        <mxCell id="title" value="Carthub Shopping Cart - AWS Code Challenge Architecture" style="text;html=1;strokeColor=none;fillColor=none;align=center;verticalAlign=middle;whiteSpace=wrap;rounded=0;fontSize=24;fontStyle=1;fontColor=#1f2937;" vertex="1" parent="1">
          <mxGeometry x="350" y="20" width="700" height="40" as="geometry" />
        </mxCell>
        
        <!-- Subtitle -->
        <mxCell id="subtitle" value="Multi-Architecture AWS Solution: Serverless + Microservices + Kubernetes" style="text;html=1;strokeColor=none;fillColor=none;align=center;verticalAlign=middle;whiteSpace=wrap;rounded=0;fontSize=16;fontColor=#6b7280;" vertex="1" parent="1">
          <mxGeometry x="400" y="60" width="600" height="30" as="geometry" />
        </mxCell>

        <!-- AWS Cloud Container -->
        <mxCell id="aws-cloud" value="" style="rounded=1;whiteSpace=wrap;html=1;fillColor=#fff2cc;strokeColor=#d6b656;strokeWidth=3;dashed=1;" vertex="1" parent="1">
          <mxGeometry x="50" y="120" width="1300" height="720" as="geometry" />
        </mxCell>
        
        <!-- AWS Cloud Label -->
        <mxCell id="aws-label" value="AWS Cloud Infrastructure" style="text;html=1;strokeColor=none;fillColor=none;align=left;verticalAlign=top;whiteSpace=wrap;rounded=0;fontSize=18;fontStyle=1;fontColor=#d6b656;" vertex="1" parent="1">
          <mxGeometry x="70" y="130" width="250" height="30" as="geometry" />
        </mxCell>

        <!-- User Layer -->
        <mxCell id="users" value="👤 End Users&#xa;🌐 Web Browsers&#xa;📱 Mobile Devices" style="rounded=1;whiteSpace=wrap;html=1;fillColor=#e1f5fe;strokeColor=#01579b;fontSize=14;fontStyle=1;" vertex="1" parent="1">
          <mxGeometry x="100" y="180" width="150" height="80" as="geometry" />
        </mxCell>

        <!-- CloudFront CDN -->
        <mxCell id="cloudfront" value="☁️ CloudFront CDN&#xa;Global Content Delivery&#xa;Edge Locations" style="rounded=1;whiteSpace=wrap;html=1;fillColor=#f3e5f5;strokeColor=#7b1fa2;fontSize=12;fontStyle=1;" vertex="1" parent="1">
          <mxGeometry x="320" y="180" width="160" height="80" as="geometry" />
        </mxCell>

        <!-- API Gateway -->
        <mxCell id="api-gateway" value="🚪 API Gateway&#xa;REST API Endpoints&#xa;Rate Limiting&#xa;CORS &amp; Security" style="rounded=1;whiteSpace=wrap;html=1;fillColor=#e8f5e8;strokeColor=#2e7d32;fontSize=12;fontStyle=1;" vertex="1" parent="1">
          <mxGeometry x="540" y="180" width="160" height="80" as="geometry" />
        </mxCell>

        <!-- Frontend Applications -->
        <mxCell id="frontend-container" value="" style="rounded=1;whiteSpace=wrap;html=1;fillColor=#f0f4ff;strokeColor=#1976d2;strokeWidth=2;dashed=1;" vertex="1" parent="1">
          <mxGeometry x="100" y="300" width="380" height="200" as="geometry" />
        </mxCell>
        
        <mxCell id="frontend-label" value="Frontend Applications" style="text;html=1;strokeColor=none;fillColor=none;align=left;verticalAlign=top;whiteSpace=wrap;rounded=0;fontSize=14;fontStyle=1;fontColor=#1976d2;" vertex="1" parent="1">
          <mxGeometry x="110" y="310" width="180" height="25" as="geometry" />
        </mxCell>

        <!-- React Frontend -->
        <mxCell id="react-frontend" value="⚛️ React Frontend&#xa;TypeScript&#xa;Modern CSS3&#xa;Responsive Design" style="rounded=1;whiteSpace=wrap;html=1;fillColor=#e3f2fd;strokeColor=#1976d2;fontSize=11;" vertex="1" parent="1">
          <mxGeometry x="120" y="340" width="140" height="70" as="geometry" />
        </mxCell>

        <!-- Microservices Frontend -->
        <mxCell id="micro-frontend" value="🐳 Microservices UI&#xa;Containerized&#xa;EKS Deployment&#xa;Load Balanced" style="rounded=1;whiteSpace=wrap;html=1;fillColor=#e3f2fd;strokeColor=#1976d2;fontSize=11;" vertex="1" parent="1">
          <mxGeometry x="280" y="340" width="140" height="70" as="geometry" />
        </mxCell>

        <!-- Mobile App -->
        <mxCell id="mobile-app" value="📱 Mobile App&#xa;Progressive Web App&#xa;Offline Support&#xa;Push Notifications" style="rounded=1;whiteSpace=wrap;html=1;fillColor=#e3f2fd;strokeColor=#1976d2;fontSize=11;" vertex="1" parent="1">
          <mxGeometry x="120" y="420" width="140" height="70" as="geometry" />
        </mxCell>

        <!-- Admin Dashboard -->
        <mxCell id="admin-dashboard" value="👨‍💼 Admin Dashboard&#xa;Management UI&#xa;Analytics&#xa;Configuration" style="rounded=1;whiteSpace=wrap;html=1;fillColor=#e3f2fd;strokeColor=#1976d2;fontSize=11;" vertex="1" parent="1">
          <mxGeometry x="280" y="420" width="140" height="70" as="geometry" />
        </mxCell>

        <!-- Serverless Backend -->
        <mxCell id="serverless-container" value="" style="rounded=1;whiteSpace=wrap;html=1;fillColor=#fff3e0;strokeColor=#f57c00;strokeWidth=2;dashed=1;" vertex="1" parent="1">
          <mxGeometry x="520" y="300" width="300" height="200" as="geometry" />
        </mxCell>
        
        <mxCell id="serverless-label" value="Serverless Backend" style="text;html=1;strokeColor=none;fillColor=none;align=left;verticalAlign=top;whiteSpace=wrap;rounded=0;fontSize=14;fontStyle=1;fontColor=#f57c00;" vertex="1" parent="1">
          <mxGeometry x="530" y="310" width="180" height="25" as="geometry" />
        </mxCell>

        <!-- Lambda Functions -->
        <mxCell id="lambda-cart" value="⚡ Cart Service&#xa;Add/Remove Items&#xa;Calculate Totals" style="rounded=1;whiteSpace=wrap;html=1;fillColor=#fff8e1;strokeColor=#f57c00;fontSize=10;" vertex="1" parent="1">
          <mxGeometry x="540" y="340" width="120" height="60" as="geometry" />
        </mxCell>

        <mxCell id="lambda-product" value="⚡ Product Service&#xa;Catalog Management&#xa;Search &amp; Filter" style="rounded=1;whiteSpace=wrap;html=1;fillColor=#fff8e1;strokeColor=#f57c00;fontSize=10;" vertex="1" parent="1">
          <mxGeometry x="680" y="340" width="120" height="60" as="geometry" />
        </mxCell>

        <mxCell id="lambda-order" value="⚡ Order Service&#xa;Checkout Process&#xa;Payment Integration" style="rounded=1;whiteSpace=wrap;html=1;fillColor=#fff8e1;strokeColor=#f57c00;fontSize=10;" vertex="1" parent="1">
          <mxGeometry x="540" y="420" width="120" height="60" as="geometry" />
        </mxCell>

        <mxCell id="lambda-user" value="⚡ User Service&#xa;Authentication&#xa;Profile Management" style="rounded=1;whiteSpace=wrap;html=1;fillColor=#fff8e1;strokeColor=#f57c00;fontSize=10;" vertex="1" parent="1">
          <mxGeometry x="680" y="420" width="120" height="60" as="geometry" />
        </mxCell>

        <!-- Microservices Backend -->
        <mxCell id="microservices-container" value="" style="rounded=1;whiteSpace=wrap;html=1;fillColor=#f1f8e9;strokeColor=#33691e;strokeWidth=2;dashed=1;" vertex="1" parent="1">
          <mxGeometry x="860" y="300" width="300" height="200" as="geometry" />
        </mxCell>
        
        <mxCell id="microservices-label" value="Microservices Backend (EKS)" style="text;html=1;strokeColor=none;fillColor=none;align=left;verticalAlign=top;whiteSpace=wrap;rounded=0;fontSize=14;fontStyle=1;fontColor=#33691e;" vertex="1" parent="1">
          <mxGeometry x="870" y="310" width="220" height="25" as="geometry" />
        </mxCell>

        <!-- EKS Services -->
        <mxCell id="eks-cart" value="🐳 Cart Service&#xa;Python FastAPI&#xa;Auto-scaling" style="rounded=1;whiteSpace=wrap;html=1;fillColor=#f9fbe7;strokeColor=#33691e;fontSize=10;" vertex="1" parent="1">
          <mxGeometry x="880" y="340" width="120" height="60" as="geometry" />
        </mxCell>

        <mxCell id="eks-product" value="🐳 Product Service&#xa;Node.js Express&#xa;Load Balanced" style="rounded=1;whiteSpace=wrap;html=1;fillColor=#f9fbe7;strokeColor=#33691e;fontSize=10;" vertex="1" parent="1">
          <mxGeometry x="1020" y="340" width="120" height="60" as="geometry" />
        </mxCell>

        <mxCell id="eks-order" value="🐳 Order Service&#xa;Java Spring Boot&#xa;Circuit Breaker" style="rounded=1;whiteSpace=wrap;html=1;fillColor=#f9fbe7;strokeColor=#33691e;fontSize=10;" vertex="1" parent="1">
          <mxGeometry x="880" y="420" width="120" height="60" as="geometry" />
        </mxCell>

        <mxCell id="eks-notification" value="🐳 Notification Service&#xa;Go Microservice&#xa;Event-driven" style="rounded=1;whiteSpace=wrap;html=1;fillColor=#f9fbe7;strokeColor=#33691e;fontSize=10;" vertex="1" parent="1">
          <mxGeometry x="1020" y="420" width="120" height="60" as="geometry" />
        </mxCell>

        <!-- Data Layer -->
        <mxCell id="data-container" value="" style="rounded=1;whiteSpace=wrap;html=1;fillColor=#fce4ec;strokeColor=#c2185b;strokeWidth=2;dashed=1;" vertex="1" parent="1">
          <mxGeometry x="100" y="540" width="1060" height="140" as="geometry" />
        </mxCell>
        
        <mxCell id="data-label" value="Data &amp; Storage Layer" style="text;html=1;strokeColor=none;fillColor=none;align=left;verticalAlign=top;whiteSpace=wrap;rounded=0;fontSize=14;fontStyle=1;fontColor=#c2185b;" vertex="1" parent="1">
          <mxGeometry x="110" y="550" width="180" height="25" as="geometry" />
        </mxCell>

        <!-- DynamoDB -->
        <mxCell id="dynamodb" value="🗄️ DynamoDB&#xa;Shopping Carts&#xa;User Sessions&#xa;Auto-scaling" style="rounded=1;whiteSpace=wrap;html=1;fillColor=#fdf2f8;strokeColor=#c2185b;fontSize=11;" vertex="1" parent="1">
          <mxGeometry x="120" y="580" width="140" height="80" as="geometry" />
        </mxCell>

        <!-- RDS PostgreSQL -->
        <mxCell id="rds" value="🐘 RDS PostgreSQL&#xa;Product Catalog&#xa;Order History&#xa;Multi-AZ" style="rounded=1;whiteSpace=wrap;html=1;fillColor=#fdf2f8;strokeColor=#c2185b;fontSize=11;" vertex="1" parent="1">
          <mxGeometry x="280" y="580" width="140" height="80" as="geometry" />
        </mxCell>

        <!-- ElastiCache -->
        <mxCell id="elasticache" value="⚡ ElastiCache&#xa;Session Store&#xa;Product Cache&#xa;Redis Cluster" style="rounded=1;whiteSpace=wrap;html=1;fillColor=#fdf2f8;strokeColor=#c2185b;fontSize=11;" vertex="1" parent="1">
          <mxGeometry x="440" y="580" width="140" height="80" as="geometry" />
        </mxCell>

        <!-- S3 -->
        <mxCell id="s3" value="📦 S3 Buckets&#xa;Product Images&#xa;Static Assets&#xa;Backups" style="rounded=1;whiteSpace=wrap;html=1;fillColor=#fdf2f8;strokeColor=#c2185b;fontSize=11;" vertex="1" parent="1">
          <mxGeometry x="600" y="580" width="140" height="80" as="geometry" />
        </mxCell>

        <!-- OpenSearch -->
        <mxCell id="opensearch" value="🔍 OpenSearch&#xa;Product Search&#xa;Analytics&#xa;Logging" style="rounded=1;whiteSpace=wrap;html=1;fillColor=#fdf2f8;strokeColor=#c2185b;fontSize=11;" vertex="1" parent="1">
          <mxGeometry x="760" y="580" width="140" height="80" as="geometry" />
        </mxCell>

        <!-- DocumentDB -->
        <mxCell id="documentdb" value="📄 DocumentDB&#xa;User Profiles&#xa;Preferences&#xa;MongoDB Compatible" style="rounded=1;whiteSpace=wrap;html=1;fillColor=#fdf2f8;strokeColor=#c2185b;fontSize=11;" vertex="1" parent="1">
          <mxGeometry x="920" y="580" width="140" height="80" as="geometry" />
        </mxCell>

        <!-- Timestream -->
        <mxCell id="timestream" value="⏰ Timestream&#xa;Metrics &amp; Analytics&#xa;Time Series Data&#xa;Performance Monitoring" style="rounded=1;whiteSpace=wrap;html=1;fillColor=#fdf2f8;strokeColor=#c2185b;fontSize=11;" vertex="1" parent="1">
          <mxGeometry x="1080" y="580" width="140" height="80" as="geometry" />
        </mxCell>

        <!-- DevOps & Monitoring -->
        <mxCell id="devops-container" value="" style="rounded=1;whiteSpace=wrap;html=1;fillColor=#f3e5f5;strokeColor=#7b1fa2;strokeWidth=2;dashed=1;" vertex="1" parent="1">
          <mxGeometry x="100" y="720" width="1060" height="100" as="geometry" />
        </mxCell>
        
        <mxCell id="devops-label" value="DevOps, Monitoring &amp; Security" style="text;html=1;strokeColor=none;fillColor=none;align=left;verticalAlign=top;whiteSpace=wrap;rounded=0;fontSize=14;fontStyle=1;fontColor=#7b1fa2;" vertex="1" parent="1">
          <mxGeometry x="110" y="730" width="250" height="25" as="geometry" />
        </mxCell>

        <!-- DevOps Services -->
        <mxCell id="codecommit" value="📝 CodeCommit&#xa;Source Control" style="rounded=1;whiteSpace=wrap;html=1;fillColor=#faf2ff;strokeColor=#7b1fa2;fontSize=10;" vertex="1" parent="1">
          <mxGeometry x="120" y="760" width="100" height="50" as="geometry" />
        </mxCell>

        <mxCell id="codebuild" value="🔨 CodeBuild&#xa;CI/CD Pipeline" style="rounded=1;whiteSpace=wrap;html=1;fillColor=#faf2ff;strokeColor=#7b1fa2;fontSize=10;" vertex="1" parent="1">
          <mxGeometry x="240" y="760" width="100" height="50" as="geometry" />
        </mxCell>

        <mxCell id="ecr" value="🐳 ECR&#xa;Container Registry" style="rounded=1;whiteSpace=wrap;html=1;fillColor=#faf2ff;strokeColor=#7b1fa2;fontSize=10;" vertex="1" parent="1">
          <mxGeometry x="360" y="760" width="100" height="50" as="geometry" />
        </mxCell>

        <mxCell id="eks" value="☸️ EKS&#xa;Kubernetes" style="rounded=1;whiteSpace=wrap;html=1;fillColor=#faf2ff;strokeColor=#7b1fa2;fontSize=10;" vertex="1" parent="1">
          <mxGeometry x="480" y="760" width="100" height="50" as="geometry" />
        </mxCell>

        <mxCell id="cloudwatch" value="📊 CloudWatch&#xa;Monitoring" style="rounded=1;whiteSpace=wrap;html=1;fillColor=#faf2ff;strokeColor=#7b1fa2;fontSize=10;" vertex="1" parent="1">
          <mxGeometry x="600" y="760" width="100" height="50" as="geometry" />
        </mxCell>

        <mxCell id="xray" value="🔍 X-Ray&#xa;Tracing" style="rounded=1;whiteSpace=wrap;html=1;fillColor=#faf2ff;strokeColor=#7b1fa2;fontSize=10;" vertex="1" parent="1">
          <mxGeometry x="720" y="760" width="100" height="50" as="geometry" />
        </mxCell>

        <mxCell id="iam" value="🔐 IAM&#xa;Security" style="rounded=1;whiteSpace=wrap;html=1;fillColor=#faf2ff;strokeColor=#7b1fa2;fontSize=10;" vertex="1" parent="1">
          <mxGeometry x="840" y="760" width="100" height="50" as="geometry" />
        </mxCell>

        <mxCell id="cognito" value="👤 Cognito&#xa;Authentication" style="rounded=1;whiteSpace=wrap;html=1;fillColor=#faf2ff;strokeColor=#7b1fa2;fontSize=10;" vertex="1" parent="1">
          <mxGeometry x="960" y="760" width="100" height="50" as="geometry" />
        </mxCell>

        <mxCell id="secrets" value="🔑 Secrets Manager&#xa;Key Management" style="rounded=1;whiteSpace=wrap;html=1;fillColor=#faf2ff;strokeColor=#7b1fa2;fontSize=10;" vertex="1" parent="1">
          <mxGeometry x="1080" y="760" width="100" height="50" as="geometry" />
        </mxCell>

        <!-- Connections -->
        <!-- User to CloudFront -->
        <mxCell id="user-cf" style="edgeStyle=orthogonalEdgeStyle;rounded=0;orthogonalLoop=1;jettySize=auto;html=1;strokeWidth=2;strokeColor=#1976d2;" edge="1" parent="1" source="users" target="cloudfront">
          <mxGeometry relative="1" as="geometry" />
        </mxCell>

        <!-- CloudFront to API Gateway -->
        <mxCell id="cf-api" style="edgeStyle=orthogonalEdgeStyle;rounded=0;orthogonalLoop=1;jettySize=auto;html=1;strokeWidth=2;strokeColor=#1976d2;" edge="1" parent="1" source="cloudfront" target="api-gateway">
          <mxGeometry relative="1" as="geometry" />
        </mxCell>

        <!-- API Gateway to Lambda -->
        <mxCell id="api-lambda" style="edgeStyle=orthogonalEdgeStyle;rounded=0;orthogonalLoop=1;jettySize=auto;html=1;strokeWidth=2;strokeColor=#f57c00;" edge="1" parent="1" source="api-gateway" target="lambda-cart">
          <mxGeometry relative="1" as="geometry" />
        </mxCell>

        <!-- API Gateway to EKS -->
        <mxCell id="api-eks" style="edgeStyle=orthogonalEdgeStyle;rounded=0;orthogonalLoop=1;jettySize=auto;html=1;strokeWidth=2;strokeColor=#33691e;" edge="1" parent="1" source="api-gateway" target="eks-cart">
          <mxGeometry relative="1" as="geometry" />
        </mxCell>

        <!-- Lambda to DynamoDB -->
        <mxCell id="lambda-dynamo" style="edgeStyle=orthogonalEdgeStyle;rounded=0;orthogonalLoop=1;jettySize=auto;html=1;strokeWidth=2;strokeColor=#c2185b;" edge="1" parent="1" source="lambda-cart" target="dynamodb">
          <mxGeometry relative="1" as="geometry" />
        </mxCell>

        <!-- EKS to RDS -->
        <mxCell id="eks-rds" style="edgeStyle=orthogonalEdgeStyle;rounded=0;orthogonalLoop=1;jettySize=auto;html=1;strokeWidth=2;strokeColor=#c2185b;" edge="1" parent="1" source="eks-cart" target="rds">
          <mxGeometry relative="1" as="geometry" />
        </mxCell>

        <!-- Architecture Labels -->
        <mxCell id="arch-serverless" value="Serverless Architecture&#xa;Auto-scaling, Pay-per-use" style="text;html=1;strokeColor=none;fillColor=#fff8e1;align=center;verticalAlign=middle;whiteSpace=wrap;rounded=1;fontSize=12;fontStyle=1;fontColor=#f57c00;" vertex="1" parent="1">
          <mxGeometry x="1200" y="180" width="140" height="50" as="geometry" />
        </mxCell>

        <mxCell id="arch-microservices" value="Microservices Architecture&#xa;Container-based, Scalable" style="text;html=1;strokeColor=none;fillColor=#f9fbe7;align=center;verticalAlign=middle;whiteSpace=wrap;rounded=1;fontSize=12;fontStyle=1;fontColor=#33691e;" vertex="1" parent="1">
          <mxGeometry x="1200" y="250" width="140" height="50" as="geometry" />
        </mxCell>

        <mxCell id="arch-hybrid" value="Hybrid Cloud Architecture&#xa;Multi-region, Enterprise" style="text;html=1;strokeColor=none;fillColor=#faf2ff;align=center;verticalAlign=middle;whiteSpace=wrap;rounded=1;fontSize=12;fontStyle=1;fontColor=#7b1fa2;" vertex="1" parent="1">
          <mxGeometry x="1200" y="320" width="140" height="50" as="geometry" />
        </mxCell>

      </root>
    </mxGraphModel>
  </diagram>
</mxfile>
